<svg height="512" viewBox="0 0 512 512" width="512" xmlns="http://www.w3.org/2000/svg"><g id="Layer_2" data-name="Layer 2"><path d="m489.12 100.78a142.58 142.58 0 0 0 -86.12-68.68c-43.45-12.24-85.12-2.85-120.5 27.15a179.71 179.71 0 0 0 -26.5 28.19 179.71 179.71 0 0 0 -26.53-28.19c-35.38-30-77.05-39.39-120.5-27.15a142.58 142.58 0 0 0 -86.09 68.68c-24.34 44.7-26.51 92.45-6.46 141.92 15.36 37.91 43.44 75.95 83.45 113.07 16.24 15.06 33.33 29.44 49.85 43.35l.27.22c23.23 19.54 46.69 39.68 69.37 59.15l26.89 23.05a15 15 0 0 0 19.5 0q13.41-11.48 26.8-23c22.71-19.49 46.2-39.65 69.46-59.22l.27-.22c16.52-13.91 33.61-28.29 49.85-43.35 40-37.12 68.09-75.16 83.45-113.07 20.05-49.45 17.88-97.2-6.46-141.9zm-97.4 233c-15.72 14.56-32.51 28.71-48.72 42.38l-.26.22c-23.37 19.67-46.92 39.88-69.69 59.42l-17 14.59-17.1-14.67c-22.74-19.52-46.26-39.7-69.6-59.34l-.26-.22c-16.25-13.67-33.06-27.82-48.76-42.39-57.67-53.44-116.76-134.77-71.1-218.65a112.43 112.43 0 0 1 67.87-54.12 105.13 105.13 0 0 1 28.49-4.1c22.77 0 44.13 8.25 63.76 24.67a150.19 150.19 0 0 1 33.33 40.06 15 15 0 0 0 26.63 0 149.8 149.8 0 0 1 33.33-40.1c27.64-23.11 58.68-30 92.26-20.57a112.43 112.43 0 0 1 67.87 54.15c45.66 83.89-13.43 165.22-71.05 218.67z"/></g></svg>