<svg height="512" viewBox="0 0 58 58" width="512" xmlns="http://www.w3.org/2000/svg"><g id="Page-1" fill="none" fill-rule="evenodd"><g id="028---Heart-Murmur" fill="rgb(0,0,0)" fill-rule="nonzero" transform="translate(-1)"><path id="Shape" d="m24 2.14c2.41 0 3.8-.75 3.99-1.07-.19-.32-1.58-1.07-3.99-1.07-2.48 0-3.88.79-4 1.1v.01c.12.24 1.52 1.03 4 1.03z"/><path id="Shape" d="m49.64 15.54c.36.13 1.34-.54 1.88-2.02.2598229-.6465433.3493459-1.3489548.26-2.04-.07-.38-.22-.66-.38-.72-.032561-.0087858-.066344-.0121641-.1-.01-.2442474.0311483-.4720688.1398016-.65.31-.5188172.4681525-.9109505 1.0597922-1.14 1.72-.54 1.48-.23 2.63.13 2.76z"/><path id="Shape" d="m24.09 13.88c.9612687.0915779 1.9061614.3101473 2.81.65.8428258-3.3044438 1.2131736-6.71164326 1.1-10.12v-1c-1.2726756.5028865-2.6317308.75091408-4 .73-1.3610371.0232139-2.7133566-.2214268-3.98-.72.02.96.02 1.8-.02 2.51-.1 1.44-.57 4.95-2.9 6.53-1.8269729 1.2054514-3.114184 3.0735211-3.59 5.21 1.3442151-1.3867049 3.0001372-2.43237 4.83-3.05 1.8431832-.6487751 3.8026094-.9009447 5.75-.74z"/><path id="Shape" d="m38.94 17.57c-.3102014.1865844-.5929152.415448-.84.68-.1915505.2418588-.481516.3850063-.79.39-.2211937.000773-.4361569-.0732307-.61-.21-.4292784-.3299948-.5179333-.9417136-.2-1.38.4585837-.5487464 1.0188458-1.0037472 1.65-1.34 1.68-.97 4.56-1.8 9.11-.82-.1606408-1.8968241.5193307-3.7685737 1.86-5.12-.31-.12-.63-.25-.94-.35-10.02-3.29-16.64 2.97-19.21 6.12 5.2 3.22 7.14 9.82 7.22 10.12.1193169.5182559-.1878734 1.0392412-.6991243 1.1856933s-1.0476951-.1328671-1.2208757-.6356933c-.02-.07-2.05-6.94-7.24-9.46-.9826116-.4756384-2.0428815-.7703461-3.13-.87-1.6668811-.1402523-3.3444725.077971-4.92.64-2.4519509.8499573-4.5079685 2.5680481-5.78 4.83-.0390944.159711-.1222508.3052347-.24.42-1.1256114 2.1608633-1.7767985 4.537185-1.91 6.97-.5176184 10.1053613 5.1247019 19.5210821 14.28 23.83 2.2955485 1.1951835 4.7127183 2.1405953 7.21 2.82 3.48.88 6.3.71 8.41-.52 1.84-1.07 3.27-2.97 4.38-5.82 1.3528591-3.4347405 2.2309509-7.0379445 2.61-10.71.61-6.09-.32-11.57-2.69-15.85-.86-1.55-3.18-5.06-6.31-4.92zm-18.7 2.743c-2.94.982-4.885 4.237-5.2 8.707-.0373235.5243803-.4742948.9303266-1 .929h-.071c-.2647383-.0186951-.5111867-.1418616-.6850608-.3423701-.173874-.2005085-.2609109-.4619113-.2419392-.7266299.375-5.3 2.828-9.214 6.562-10.462.5246705-.1747981 1.0917019.1088295 1.2665.6335s-.1088295 1.0917019-.6335 1.2665z"/><path id="Shape" d="m57.525 27.827c-.4903922-2.8579158-1.3513151-5.6396955-2.561-8.275-.232788-.5011984-.8278016-.718788-1.329-.486s-.718788.8278016-.486 1.329c1.1373751 2.4767965 1.9462226 5.0915995 2.406 7.778.615481 3.6234744.7298854 7.3143629.34 10.969-.4448676 4.3965482-1.4902636 8.7113723-3.107 12.824-.4683272 1.2134555-1.028969 2.3892321-1.677 3.517-.1845059.309146-.1885932.6936078-.0107016 1.0066067.1778917.3129988.5102999.5062147.8703187.5058822.3600189-.0003325.6920697-.194162.8693829-.5074889.6999084-1.2164374 1.3053556-2.4848341 1.811-3.794 1.6830628-4.2823233 2.7711905-8.7751402 3.234-13.353.4087435-3.8363426.2876071-7.7106856-.36-11.514z"/><path id="Shape" d="m3.307 26.048c.08560412-.5459335-.28756654-1.0578958-.8335-1.1435-.54593347-.0856041-1.05789585.2875665-1.1435.8335-1.521 9.719 2.07 23.401 13.527 32.062.2858125.2152525.6647499.2616749.9940703.1217803s.5589922-.4448528.6025001-.8c.0435079-.3551471-.1057579-.7065278-.3915704-.9217803-10.795-8.158-14.185-21.023-12.755-30.152z"/><path id="Shape" d="m53.451 27.806c-.3578709-1.8281662-.8885877-3.6182057-1.585-5.346-.1306878-.3363154-.4324152-.5761494-.789545-.6275852-.3571299-.0514359-.7142746.0935036-.9345581.3792702-.2202835.2857665-.2695419.6680405-.1288969 1.000315.6489269 1.6121461 1.1431494 3.2823237 1.476 4.988.6711547 3.4722656.8147699 7.025899.426 10.541-.4128159 4.0335755-1.3736652 7.9920323-2.856 11.766-.1300447.3327929-.072668.7096842.1505168.9887027.2231847.2790184.5782705.4177744.9315.364.3532294-.0537745.6509385-.2919098.7809832-.6247027 1.5484602-3.9430341 2.5520376-8.0787957 2.983-12.293.4087445-3.7137368.2556939-7.4678605-.454-11.136z"/><path id="Shape" d="m7.059 28.455c.03614119-.5492047-.37831791-1.024373-.92734094-1.0631761-.54902302-.0388031-1.0261949.3733476-1.06765906.9221761-.5404935 9.8174264 3.63550169 19.3035964 11.241 25.535.4277445.3498723 1.0581276.2867445 1.408-.141.3498723-.4277446.2867445-1.0581276-.141-1.408-7.1071926-5.8164122-11.01274644-14.6747715-10.513-23.845z"/></g></g></svg>