<svg id="Layer_1" data-name="Layer 1" xmlns="http://www.w3.org/2000/svg" viewBox="0 0 1210.54 869.99"><defs><style>.cls-1{fill:#f8a047;}.cls-2{fill:#333;}</style></defs><polygon class="cls-1" points="740.06 222.78 663.36 222.78 663.36 314.61 740.06 314.61 740.06 391.31 831.89 391.31 831.89 314.61 908.59 314.61 908.59 222.78 831.89 222.78 831.89 146.08 740.06 146.08 740.06 222.78"/><path class="cls-2" d="M811.37,865.18c-55.17-69.35-70.78-129.35-52.19-200.62,12.23-46.87,47.16-87.35,93.46-108.26,50.9-23,108.23-20.92,161.4,5.88l-14.65,29.06C955.18,569,907.82,567.08,866,586c-37.42,16.91-65.59,49.36-75.36,86.82-15.93,61-2.55,110.91,46.17,172.14Z" transform="translate(-308.93 -540.44)"/><path class="cls-2" d="M1094.9,1131.23l-17.71-13.43c-144.09-109.33-226.63-182.46-276-244.51L847,836.82c43.56,54.76,120.4,123.26,247.87,220.83,127.46-97.57,204.3-166.07,247.87-220.83l45.84,36.47c-49.37,62.05-131.92,135.18-276,244.51Z" transform="translate(-308.93 -540.44)"/><path class="cls-2" d="M1378.42,865.18,1353,844.92c48.73-61.23,62.1-111.11,46.18-172.14-9.77-37.46-38-69.91-75.37-86.82-41.78-18.89-89.14-17-133.35,5.28l-14.66-29.06c53.18-26.8,110.49-28.89,161.41-5.88,46.3,20.91,81.23,61.39,93.46,108.26C1449.21,735.83,1433.6,795.83,1378.42,865.18Z" transform="translate(-308.93 -540.44)"/><circle class="cls-2" cx="1016.48" cy="583.32" r="38.89" transform="translate(-91.07 900.61) rotate(-76.89)"/><circle class="cls-2" cx="1173.32" cy="583.32" r="38.89" transform="translate(-386.61 -346.9) rotate(-9.13)"/><path class="cls-2" d="M948.93,1394.57c-22.55-15.15-40.33-51.22-30.69-90.85,8-32.61,39.77-86.87,160.18-112.26v-97H1111v91.19q10.33-1.53,21.4-2.79c196.39-22.46,237.21-81.55,280.43-144.1l1.29-1.87,26.77,18.49-1.29,1.88c-45.45,65.78-92.44,133.8-303.5,157.92q-13.15,1.51-25.11,3.39c-.7,87.72-30,157.46-76.94,182.46a77.3,77.3,0,0,1-36.6,9.39C981.13,1410.43,964.63,1405.12,948.93,1394.57Zm.94-83.15c-6.06,24.88,4.34,47.49,17.21,56.14,17.77,11.93,35.15,13.54,51.62,4.76,34.77-18.54,57.75-75.89,59.6-147.53C977,1247.79,954.7,1291.56,949.87,1311.42Z" transform="translate(-308.93 -540.44)"/><path class="cls-2" d="M1385.82,1012.78a66.83,66.83,0,1,1,66.83,66.82A66.9,66.9,0,0,1,1385.82,1012.78Zm32.55,0a34.28,34.28,0,1,0,34.28-34.28A34.32,34.32,0,0,0,1418.37,1012.78Z" transform="translate(-308.93 -540.44)"/><path class="cls-1" d="M341.61,1020.33l22.6-20.5a120,120,0,0,1,19.28,33.9,92.52,92.52,0,0,1,5.54,30.81q0,25-11.63,42.76-12,18.06-31.8,18.06-20.61,0-36.67-10.41l7.64-18.17a41.51,41.51,0,0,0,15.18,2.77q16.29,0,25.37-9.64,8.86-9.42,8.86-26.15,0-12.3-9.75-26.26Q352.36,1032.19,341.61,1020.33Z" transform="translate(-308.93 -540.44)"/><path class="cls-1" d="M444.54,1079.6q-17.73,0-27.92-8.53-12.19-10.3-12.19-32.24,0-22.27,12.3-36.78Q427.8,989,444,989q21.72,0,33.69,18.73,9.19,14.5,11,37.34c.07.73.14,1.92.22,3.54.07,1.33.11,2.37.11,3.1h21.6v27.92H487q-3.87,22.38-15.06,34.24-11,11.52-27.93,11.52-23,0-40.32-10.41l7.64-18.28a55.41,55.41,0,0,0,18.06,2.88q15.51,0,25.15-7.54a24.83,24.83,0,0,0,9.09-12.41ZM452,939.34l7.09,7.64-8.53,28.25a59.39,59.39,0,0,1-10.75.89c-1.18,0-2.17,0-3-.11a254.11,254.11,0,0,0-16.17-30.47A54.47,54.47,0,0,1,431.8,941,127.07,127.07,0,0,1,444,963.38a215.17,215.17,0,0,1,7-21.27C451.41,940.93,451.74,940,452,939.34Zm12.3,111q-.11-17.61-5.65-26.92-5.33-9-14.74-9a13,13,0,0,0-11,5.87q-4.26,5.86-4.27,15.18t4.6,12.68q4.6,3.49,16.57,3.49h14.51Z" transform="translate(-308.93 -540.44)"/><path class="cls-1" d="M547.91,983.1l-13.18-13.18-13.3,13.18-16.51-16.62L521.43,950l13.3,13.19L547.91,950l16.51,16.51Zm14.63,64.15q7,4.44,24,4.43v27.92h-3.77q-20.28,0-33.79-8.2-11.87,8.2-32.91,8.2h-9.19v-27.92h6q13.07,0,18.39-1.77,7.32-2.55,7.31-9.2,0-13.07-10.85-33.12l24.81-14.07A110.68,110.68,0,0,1,563,1040.16Q563,1042.94,562.54,1047.25Z" transform="translate(-308.93 -540.44)"/><path class="cls-1" d="M662.58,948.09l14,23.49q-5.43.78-17.72,6.59a171.59,171.59,0,0,0-22.05,12.35h1.33q26.92.68,40.66,17.29,10.41,12.63,10.41,30.91,0,40.89-50.19,40.88H584.69v-27.92h50.08q14.52,0,21.17-2.21,8.74-2.88,8.75-10.09,0-14.4-17.62-20.82a74.31,74.31,0,0,0-25.7-4.1,99.91,99.91,0,0,0-21.61,2.32l5-28.47A115.07,115.07,0,0,1,629.23,965Q642.54,955.85,662.58,948.09Z" transform="translate(-308.93 -540.44)"/><path class="cls-1" d="M730.06,1003.93l10.3-24.6q24.5,8.86,39.45,25.82,13.73,15.4,13.73,32.24,0,13.41-3.65,21.94a33,33,0,0,1-11.75,14.18Q766.85,1081,741,1081q-23.26,0-38.45-4.76l8.53-25.93a172.62,172.62,0,0,0,30.47,3.22q13.18,0,18.28-1.89,8.43-3,8.42-11.85,0-5.2-3.76-11.52a33.24,33.24,0,0,0-9-10.09,113,113,0,0,0-20.16-11.85Q732.05,1004.81,730.06,1003.93Z" transform="translate(-308.93 -540.44)"/><path class="cls-2" d="M347.67,1225.16l7.31-6.87q19.13,10.28,26.29,19.73a30.06,30.06,0,0,1,6.13,18.76q0,13.89-10.11,20.68A27.29,27.29,0,0,1,361.7,1282q-10.49,0-17.73-6.06-8-6.72-8.05-19.13a30.73,30.73,0,0,1,3.1-13.15,37.89,37.89,0,0,1,13.74-15.36A34.66,34.66,0,0,0,347.67,1225.16Zm12.33,7.69q-15.13,9.89-15.14,22.3,0,8.13,5.47,12.85a16.68,16.68,0,0,0,11.37,4,16.87,16.87,0,0,0,12.56-5,15.91,15.91,0,0,0,4.43-11.52q0-7.83-7.09-14.85A36.69,36.69,0,0,0,360,1232.85Z" transform="translate(-308.93 -540.44)"/><path class="cls-2" d="M438.15,1270.29a78.89,78.89,0,0,0,14.48,1v10h-2.44a78,78,0,0,1-12-1.11q-1.26,14-8.27,22.46-7.69,9.15-20.69,9.16a37.47,37.47,0,0,1-19.05-4.73l3.25-7.31A32.08,32.08,0,0,0,405.5,1302q12.48,0,18.84-8.35,5.46-7.08,5.46-19.27a39.35,39.35,0,0,0-3.73-16.62q-3.72-8.13-12.52-18.62l8.35-8Q436.75,1250.8,438.15,1270.29Z" transform="translate(-308.93 -540.44)"/><path class="cls-2" d="M468.58,1292.45l8.05,8.2-8.05,8-6.57-6.57-6.58,6.57-8.2-8,8.2-8.2L462,1299Zm-4.36-60.64,9.31-5q7.68,18,7.68,31,0,23.43-26.07,23.42h-4.95v-10h4.5q17.73,0,17.73-13Q472.42,1248.44,464.22,1231.81Zm11.3-34-5.31,18.1a42.74,42.74,0,0,1-6.13.44c-.64,0-1.31,0-2-.07l-2-4.58a114.82,114.82,0,0,0-7.68-14.85,30.46,30.46,0,0,1,6-2.21,71.25,71.25,0,0,1,8.05,15.21,105.45,105.45,0,0,1,4.28-13.14c.45-1.09.79-2,1-2.74Z" transform="translate(-308.93 -540.44)"/><path class="cls-2" d="M530.63,1270.29a78.78,78.78,0,0,0,14.47,1v10h-2.43a78,78,0,0,1-12-1.11q-1.26,14-8.28,22.46-7.68,9.15-20.68,9.16a37.51,37.51,0,0,1-19.06-4.73l3.25-7.31A32.17,32.17,0,0,0,498,1302q12.48,0,18.83-8.35,5.48-7.08,5.47-19.27a39.35,39.35,0,0,0-3.73-16.62q-3.74-8.13-12.52-18.62l8.35-8Q529.21,1250.8,530.63,1270.29Zm-16.55-50.15-6.57-6.57-6.58,6.57-8.12-8.05,8.12-8.13,6.58,6.58,6.57-6.58,8,8.13Zm-6.65-32,7.91,8-7.91,7.83-7.83-7.83Z" transform="translate(-308.93 -540.44)"/><path class="cls-2" d="M572.06,1268.3q7.17,3.18,18.32,3v10h-2.44q-13.66-.3-22.23-4.73-6.42,4.73-18.09,4.73h-5v-10h4.43q17.79,0,17.8-13,0-9.81-8.2-26.44l9.31-5q7.68,18,7.68,31A32.54,32.54,0,0,1,572.06,1268.3Zm-15,41-8.57-8.49,8.57-8.57,8.42,8.57Z" transform="translate(-308.93 -540.44)"/><path class="cls-2" d="M608.4,1194.14a28.19,28.19,0,0,1,5.84-.52,31.68,31.68,0,0,1,6.2.52l-1.47,63.6q0,23.57-25.56,23.56h-5.47l.15-10h5.32q7.46,0,11.89-3.32t4.58-10Zm14.78-31.61-5.32,18.09a42.66,42.66,0,0,1-6.13.45c-.59,0-1.26,0-2-.08l-2-4.65a121.35,121.35,0,0,0-7.61-14.85,29,29,0,0,1,5.91-2.21,73.36,73.36,0,0,1,8.05,15.29,105.25,105.25,0,0,1,4.29-13.15c.44-1.13.78-2,1-2.73Z" transform="translate(-308.93 -540.44)"/><path class="cls-2" d="M704.94,1271.25h1.63v10h-2q-15.89,0-21.79-8.94a31,31,0,0,1-19.58,6.43q-12.33,0-18.76-8.35a24.88,24.88,0,0,1-5-15.66q0-13.29,9.16-21.34,9.52-8.43,27.33-8.72h1.92l-.22-5.69a35.19,35.19,0,0,1,6.06-.44,32.45,32.45,0,0,1,5.76.44l-.89,39.08Q688.62,1271.25,704.94,1271.25Zm-26.66-37.59a97,97,0,0,0-11.23.81,29,29,0,0,0-7.31,2.22,17.87,17.87,0,0,0-8.27,6.87,18.77,18.77,0,0,0-3,10.48,15.21,15.21,0,0,0,3.4,10q4.13,4.88,12.11,4.87a28.4,28.4,0,0,0,15.88-4.73q-.81-3.62-1.25-22Q678.43,1236.24,678.28,1233.66Z" transform="translate(-308.93 -540.44)"/><path class="cls-2" d="M745.72,1227.75l3.25-9.31q22.53.66,33.46,12.71,8.57,9.52,8.57,24.52,0,25.63-29.62,25.63H753q-8.94,0-13.52-2.59a16.61,16.61,0,0,1-5.43,2.07,46.61,46.61,0,0,1-8.08.52H704.21v-10h21.93a19.59,19.59,0,0,1-6.5-7.49,21.75,21.75,0,0,1-2.43-10,22.32,22.32,0,0,1,6.64-16.55q6.21-6.12,15.81-6.13,10.79,0,17.21,7.83a22.43,22.43,0,0,1,5.24,14.85,21.47,21.47,0,0,1-2.47,10,19.5,19.5,0,0,1-6.61,7.53h8.86q20.1,0,20.09-15.21,0-14-11.08-21.42Q761.68,1228.56,745.72,1227.75Zm-6.21,41.66a17,17,0,0,0,10.27-5.84,15.28,15.28,0,0,0,4.14-10.26,13.89,13.89,0,0,0-14.41-14.26,13.68,13.68,0,0,0-11,4.87,14,14,0,0,0-3.33,9.24,15.47,15.47,0,0,0,5.25,11.45A16.23,16.23,0,0,0,739.51,1269.41Z" transform="translate(-308.93 -540.44)"/></svg>