<svg id="Layer_1" data-name="Layer 1" xmlns="http://www.w3.org/2000/svg" viewBox="0 0 198.16 101.65"><defs><style>.cls-1{fill:#f8a047;fill-rule:evenodd;}</style></defs><path class="cls-1" d="M153.94,138.69a5.79,5.79,0,1,0,5.78,5.79,5.79,5.79,0,0,0-5.78-5.79Zm-4.21-4.75a17.44,17.44,0,1,1-17.41,17.44,17.42,17.42,0,0,1,17.41-17.44Zm0-8.07a25.51,25.51,0,1,0,25.47,25.51,25.49,25.49,0,0,0-25.47-25.51Zm12.16-10.46a38,38,0,0,1,9.41,67.35c25.92-7.59,51.58-24.12,52.14-31.39h.33l-.16-.31.16-.29h-.31c-3.83-8.21-33.57-29.08-61.57-35.36Zm-21.59-.85c-31.78,4.85-64.61,29.15-64.61,36.5h0c.76,6.29,26.53,25.56,54.58,32.93a37.94,37.94,0,0,1,10-69.44Zm9.22-15.11c41.31,2.13,93,38.43,98.87,51.51h.42l-.22.41.22.43h-.44c-1,13-57.58,47.27-98.85,49.31-45.89-1.12-97.62-39-98.87-49.72v0c0-11.2,53-50.75,98.87-51.91Z" transform="translate(-50.65 -99.45)"/></svg>