<?xml version="1.0" encoding="utf-8"?>
<!-- Generator: Adobe Illustrator 25.2.1, SVG Export Plug-In . SVG Version: 6.00 Build 0)  -->
<svg version="1.1" id="Layer_1" xmlns="http://www.w3.org/2000/svg" xmlns:xlink="http://www.w3.org/1999/xlink" x="0px" y="0px"
	 viewBox="0 0 600 600" style="enable-background:new 0 0 600 600;" xml:space="preserve">
<style type="text/css">
	.st0{fill:#0F2C41;}
	.st1{fill:#FFFFFF;}
</style>
<g>
	<g>
		<path class="st0" d="M293.89,466.92c0,0-166.89-121.67-177.9-226.85c0,0-10.17-81.79,67.77-117.3c0,0,50.98-26.1,109.05,43.77
			c0,0,51.26-63.05,109.27-45.1c0,0,80.35,25.13,67.08,125.24C469.15,246.68,462.78,338.2,293.89,466.92z"/>
		<g>
			<path class="st1" d="M310.17,364.63c-0.94,0-1.91-0.12-2.92-0.37c-6.41-1.61-9.45-7.87-10.18-13.29l-15.11-88.29l-29.66,45.65
				L110,308.13l0.03-17.95l132.54,0.18l30.95-47.63c2.61-4.16,7.55-8.13,13.65-6.88c8.94,1.82,10.6,12.33,11.22,16.39l15,87.62
				l33.88-48.52h138.92v17.95H356.61l-31.28,44.8C323.38,356.86,317.91,364.63,310.17,364.63z"/>
		</g>
	</g>
</g>
</svg>
