<?xml version="1.0" encoding="utf-8"?>
<!-- Generator: Adobe Illustrator 25.2.1, SVG Export Plug-In . SVG Version: 6.00 Build 0)  -->
<svg version="1.1" id="Layer_1" xmlns="http://www.w3.org/2000/svg" xmlns:xlink="http://www.w3.org/1999/xlink" x="0px" y="0px"
	 viewBox="0 0 600 600" style="enable-background:new 0 0 600 600;" xml:space="preserve">
<style type="text/css">
	.st0{fill:#0F2C41;}
</style>
<g>
	<path class="st0" d="M202.76,402.53c0,0,43.04-16.14,19.6-82.63c0,0-11.53-24.6,14.61-43.43c0,0,51.79-35.17,15.37-87.24
		c0,0-29.98-45.54-93.01-26.52c0,0-71.48,18.45-69.95,114.53c0,0-1.54,90.32,48.43,122.99
		C137.81,400.22,165.24,418.29,202.76,402.53z"/>
	<path class="st0" d="M375.6,402.53c0,0-43.05-16.14-19.6-82.63c0,0,11.53-24.6-14.61-43.43c0,0-51.79-35.17-15.37-87.24
		c0,0,29.98-45.54,93.01-26.52c0,0,71.49,18.45,69.95,114.53c0,0,1.54,90.32-48.43,122.99C440.55,400.22,413.12,418.29,375.6,402.53
		z"/>
	<path class="st0" d="M230.53,305.72c0,0-0.72-10.52,13.83-21.33c0,0,9.37-6.63,13.69-14.41c0,0,25.8,13.69,31.85,23.2
		c0,0,12.77-14.52,30.5-23.6c0,0,3.04,6.21,14.61,15.53c0,0,12.59,8.55,13.11,20.27c0,0-30.26,15.66-32.76,38.34l0.05,97.91h-49.58
		l-0.52-97.14C265.32,344.49,265.41,325.37,230.53,305.72z"/>
</g>
</svg>
