<?xml version="1.0" encoding="utf-8"?>
<!-- Generator: Adobe Illustrator 25.2.1, SVG Export Plug-In . SVG Version: 6.00 Build 0)  -->
<svg version="1.1" id="Layer_1" xmlns="http://www.w3.org/2000/svg" xmlns:xlink="http://www.w3.org/1999/xlink" x="0px" y="0px"
	 viewBox="0 0 600 600" style="enable-background:new 0 0 600 600;" xml:space="preserve">
<style type="text/css">
	.st0{fill:#0F2C41;}
</style>
<path class="st0" d="M465.48,329.96c-7.4-31.21-56.33-98.64-56.33-98.64c-8.99-14.28-30.06-26.98-30.06-26.98
	c-6.7-3-20.45-10.4-20.45-10.4c-11.64-5.29-5.11-23.98-5.11-23.98c8.64-17.63,12.87-55.36,12.87-55.36
	c12.52,16.05,22.22,50.87,22.22,50.87c0.97,4.67,2.91,12.25,2.91,12.25c5.29,17.36,14.99,10.58,14.99,10.58
	c11.37-7.76,22.48-27.06,22.48-27.06c4.83-6.35,2.64-17.72,2.64-17.72c-12.43-62.94-77.4-69.46-77.4-69.46
	c-16.88-26.4-51.66-25.22-51.66-25.22c-45.23,1.32-59.24,42.85-59.24,42.85c-9.78,31.21,2.91,60.83,2.91,60.83
	c2.64,6.35,4.23,17.19,4.23,17.19c-0.26,15.87,10.84,16.4,10.84,16.4c10.84-0.26,22.48,6.35,22.48,6.35
	c2.78,6.57-1.32,22.13-1.32,22.13c-8.37,23.54-35.44,41.96-35.44,41.96c-16.05,10.75-21.16,24.15-21.16,24.15
	c-9.88,25.74,14.68,42.93,14.68,42.93c5.16,4.16,3.83,9.92,3.83,9.92c-1.59,7.54-12.43,13.88-12.43,13.88
	c-41.25,26.09-44.52,74.14-44.52,74.14c-6,53.73,27.24,85.16,27.24,85.16c11,10.42,24.95,11.28,24.95,11.28h125.76
	c11.97,0,14.77-10.23,14.77-10.23c6.7-21.68-4.72-65.41-4.72-65.41c49.5-44.08,86.08-91.11,86.08-91.11
	C468.12,342,465.48,329.96,465.48,329.96z M405.18,338.28c-8.99,11.77-40.61,56.7-40.61,56.7c-12.17-49.98,6.22-110.19,6.22-110.19
	c2.38,5.29,33.68,46.59,33.68,46.59C407.34,335.25,405.18,338.28,405.18,338.28z"/>
</svg>
